<svg xmlns="http://www.w3.org/2000/svg" width="52.858" height="55.156" viewBox="0 0 52.858 55.156"><defs><style>.a{fill:#aecd40;}</style></defs><path class="a" d="M1341.386,195a18.385,18.385,0,1,0,18.385,18.385A18.407,18.407,0,0,0,1341.386,195Zm0,32.174a13.789,13.789,0,1,1,13.789-13.789A13.8,13.8,0,0,1,1341.386,227.174Z" transform="translate(-1306.913 -176.615)"/><path class="a" d="M1352.77,200.789V187h-26.231L1316,197.539v40.02h16.087v-4.6H1320.6V203.087h11.49V191.6h16.087v9.193Zm-31.223-2.3,5.943-5.943v5.943Z" transform="translate(-1316 -187)"/><rect class="a" width="5.081" height="10.162" transform="translate(31.835 33.875)"/><rect class="a" width="5.081" height="5.081" transform="translate(31.835 27.1)"/></svg>