<svg xmlns="http://www.w3.org/2000/svg" width="18.962" height="19.786" viewBox="0 0 18.962 19.786"><defs><style>.a{fill:#c1c1c1;}</style></defs><path class="a" d="M1329.6,195a6.6,6.6,0,1,0,6.6,6.6A6.6,6.6,0,0,0,1329.6,195Zm0,11.542a4.947,4.947,0,1,1,4.947-4.947A4.951,4.951,0,0,1,1329.6,206.542Z" transform="translate(-1317.229 -188.405)"/><path class="a" d="M1329.191,191.947V187h-9.41L1316,190.781v14.357h5.771v-1.649h-4.122V192.771h4.122v-4.122h5.771v3.3Zm-11.2-.824,2.132-2.132v2.132Z" transform="translate(-1316 -187)"/><rect class="a" width="1.823" height="3.646" transform="translate(11.42 12.152)"/><rect class="a" width="1.823" height="1.823" transform="translate(11.42 9.722)"/></svg>